HIERARCHY
ROOT hip
{
	OFFSET 0.000000 0.000000 0.000000 
	CHANNELS 6 Xposition Yposition Zposition Xrotation Zrotation Yrotation
	JOINT abdomen
	{
		OFFSET 0.000000 3.402643 0.000000 
		CHANNELS 3 Xrotation Zrotation Yrotation
		JOINT chest
		{
			OFFSET 0.000000 8.438565 -0.680529 
			CHANNELS 3 Xrotation Zrotation Yrotation
			JOINT neck
			{
				OFFSET 0.000000 10.207942 -0.272212 
				CHANNELS 3 Xrotation Zrotation Yrotation
				JOINT head
				{
					OFFSET 0.000000 3.130431 0.000000 
					CHANNELS 3 Xrotation Zrotation Yrotation
					End Site
					{
						OFFSET 0.000000 3.130435 0.000000 
					}
				}
			}
			JOINT lCollar
			{
				OFFSET 3.470700 6.669187 -0.816635 
				CHANNELS 3 Yrotation Zrotation Xrotation
				JOINT lShldr
				{
					OFFSET 3.198488 0.000000 0.000000 
					CHANNELS 3 Zrotation Yrotation Xrotation
					JOINT lForeArm
					{
						OFFSET 10.139888 0.000000 0.000000 
						CHANNELS 3 Yrotation Zrotation Xrotation
						JOINT lHand
						{
							OFFSET 8.370511 0.000000 0.000000 
							CHANNELS 3 Zrotation Yrotation Xrotation
							End Site
							{
								OFFSET 4.083176 0.000000 0.000000 
							}
						}
					}
				}
			}
			JOINT rCollar
			{
				OFFSET -3.470700 6.669187 -0.816635 
				CHANNELS 3 Yrotation Zrotation Xrotation
				JOINT rShldr
				{
					OFFSET -3.198488 0.000000 0.000000 
					CHANNELS 3 Zrotation Yrotation Xrotation
					JOINT rForeArm
					{
						OFFSET -10.139888 0.000000 0.000000 
						CHANNELS 3 Yrotation Zrotation Xrotation
						JOINT rHand
						{
							OFFSET -8.370511 0.000000 0.000000 
							CHANNELS 3 Zrotation Yrotation Xrotation
							End Site
							{
								OFFSET -4.083176 0.000000 0.000000 
							}
						}
					}
				}
			}
		}
	}
	JOINT lThigh
	{
		OFFSET 5.308129 -1.633274 1.361059 
		CHANNELS 3 Xrotation Zrotation Yrotation
		JOINT lShin
		{
			OFFSET -2.041588 -20.007561 0.000000 
			CHANNELS 3 Xrotation Zrotation Yrotation
			JOINT lFoot
			{
				OFFSET 0.000000 -19.190928 -1.224953 
				CHANNELS 3 Xrotation Yrotation Zrotation
				End Site
				{
					OFFSET 0.000000 -2.449906 4.627600 
				}
			}
		}
	}
	JOINT rThigh
	{
		OFFSET -5.308129 -1.633274 1.361059 
		CHANNELS 3 Xrotation Zrotation Yrotation
		JOINT rShin
		{
			OFFSET 2.041588 -20.007561 0.000000 
			CHANNELS 3 Xrotation Zrotation Yrotation
			JOINT rFoot
			{
				OFFSET 0.000000 -19.190928 -1.224953 
				CHANNELS 3 Xrotation Yrotation Zrotation
				End Site
				{
					OFFSET 0.000000 -2.449906 4.627600 
				}
			}
		}
	}
}
MOTION
Frames: 11
Frame Time: 0.033333
-0.806150 46.635750 0.089572 0.166016 1.572266 -0.878906 6.494141 -2.470703 2.626973 0.000000 0.000000 0.000000 -13.183594 4.746094 11.436356 0.000000 0.000000 0.000000 0.000000 0.000000 0.000000 -70.458992 -7.802735 64.042969 -8.398438 7.001954 -2.968750 -8.085938 -0.498047 -11.162110 0.000000 0.000000 0.000000 54.199219 6.865235 52.480469 11.962891 1.464844 -0.771734 13.955079 6.259767 -2.899324 -13.694110 -1.073299 -4.749546 22.203581 -9.392962 1.979328 -8.992868 13.865393 -0.418767 -27.948723 -37.077431 -20.767670 41.351143 9.997083 -10.122736 3.983561 5.161260 6.760681 
-0.794954 46.501389 0.246324 0.869141 4.570313 -2.274613 4.570313 -4.228516 3.143811 0.000000 0.000000 0.000000 -11.787109 4.570313 10.547653 0.000000 0.000000 0.000000 0.000000 0.000000 0.000000 -70.322266 -2.724609 58.603516 -7.558594 7.011719 -5.888671 -9.785156 -3.183594 -13.252497 0.000000 0.000000 0.000000 55.898438 6.171875 51.251049 10.546875 1.171875 -0.498247 14.003906 5.205079 -2.900391 -13.772403 -3.142576 -6.007500 20.599163 -9.967495 2.423206 -8.151496 13.665556 -0.229376 -29.012577 -39.331703 -20.519991 40.654221 10.100305 -11.565730 3.304877 3.276579 6.679870 
-0.750168 46.411816 0.246324 1.757813 8.789063 -4.052734 2.275390 -6.865235 4.189454 0.000000 0.000000 0.000000 -10.556642 4.218750 9.667969 0.000000 0.000000 0.000000 0.000000 0.000000 0.000000 -70.576172 2.890625 52.431641 -6.357422 6.914062 -9.005082 -11.425780 -6.210938 -15.323321 0.000000 0.000000 0.000000 58.691406 5.986328 50.341801 7.724609 0.888672 -0.039063 14.062499 4.150391 -3.564453 -14.630241 -6.089890 -6.413683 20.224373 -9.937150 2.642657 -8.295273 12.738745 0.116932 -31.083992 -42.050297 -20.220303 40.578125 9.824853 -12.595134 2.066662 0.887681 6.457917 
-0.951705 46.154297 0.335896 2.978516 13.349610 -6.862980 -0.537109 -10.205078 6.142578 0.000000 0.000000 0.000000 -9.853516 3.681641 10.020158 0.000000 0.000000 0.000000 0.000000 0.000000 0.000000 -70.947266 7.666016 45.870445 -3.056641 5.429688 -11.044921 -11.074219 -8.437500 -13.487761 0.000000 0.000000 0.000000 62.314453 6.972656 50.957031 6.484375 0.605469 2.138672 14.082031 1.845703 -4.941092 -16.815702 -9.823829 -4.961346 21.343674 -9.650771 2.760686 -8.815656 12.665642 0.540582 -35.114571 -45.030704 -18.128696 41.175877 9.459950 -12.069686 0.348410 -0.241702 6.481048 
-1.265208 45.784809 0.291110 3.857422 17.216799 -10.368202 -2.470703 -13.545017 8.386333 0.000000 0.000000 0.000000 -10.205079 3.339844 11.611328 0.000000 0.000000 0.000000 0.000000 0.000000 0.000000 -70.361328 11.445313 38.271484 0.322266 3.339844 -11.699788 -10.517579 -9.316406 -10.615235 0.000000 0.000000 0.000000 64.785156 9.443359 54.894184 12.441405 0.908203 4.023438 13.916016 -0.097656 -7.207031 -19.388540 -12.594648 -2.138065 21.829016 -9.435710 3.212469 -8.975683 12.571779 0.526581 -40.895203 -47.161434 -14.777120 41.902477 9.074150 -10.538980 -0.247079 -1.386487 5.868666 
-1.713069 45.818398 0.447861 5.263672 20.566406 -13.893054 -4.228463 -15.829890 10.358795 0.000000 0.000000 0.000000 -11.953125 2.285156 13.887108 0.000000 0.000000 0.000000 0.000000 0.000000 0.000000 -68.242188 15.615234 32.089840 1.591797 1.835938 -10.869452 -8.662109 -7.929688 -9.884161 0.000000 0.000000 0.000000 65.039063 12.500000 60.031414 22.832029 1.074219 3.837890 14.990235 4.394532 -9.442610 -22.531042 -14.527469 0.967378 22.235382 -9.467714 3.866248 -8.288136 12.257639 -0.476345 -48.064060 -47.682270 -9.530913 42.605305 8.964116 -9.466116 -0.216152 -1.610048 5.417448 
-1.668283 45.986347 0.638202 4.042969 17.919922 -11.246996 -2.285156 -13.535156 8.964844 0.000000 0.000000 0.000000 -11.074219 2.109375 12.129193 0.000000 0.000000 0.000000 0.000000 0.000000 0.000000 -67.714844 14.843750 36.757813 -0.712891 3.886719 -10.576170 -9.267578 -8.105469 -11.231844 0.000000 0.000000 0.000000 65.830070 10.185547 58.994141 21.552734 -0.947266 4.238281 13.769530 4.433594 -11.279297 -18.480402 -11.188548 0.503432 20.034319 -8.201023 3.302927 -7.036466 9.753114 -2.331032 -38.970890 -42.952496 -12.063648 37.727840 7.526897 -8.314639 -0.270266 -1.508645 5.634191 
-1.757856 46.378223 0.761364 1.757813 13.710938 -6.462529 1.054688 -9.492157 6.824584 0.000000 0.000000 0.000000 -9.501953 2.109375 8.789063 0.000000 0.000000 0.000000 0.000000 0.000000 0.000000 -66.337891 13.798829 45.605465 -4.921875 7.324219 -10.186791 -9.970703 -8.496094 -13.417969 0.000000 0.000000 0.000000 66.845703 4.873047 57.099613 20.634766 -5.615235 5.000955 11.855469 4.531250 -14.570313 -11.968674 -5.593567 1.079414 16.451460 -5.910081 1.224999 -5.320615 4.774090 -5.408757 -25.817205 -34.026066 -13.981741 30.011421 4.558317 -6.100057 -0.566521 -1.808756 6.294874 
-2.138538 47.094807 0.772561 -0.712891 8.955079 -0.712891 4.570313 -5.107422 4.725693 0.000000 0.000000 0.000000 -8.261718 2.460938 4.746513 0.000000 0.000000 0.000000 0.000000 0.000000 0.000000 -64.179688 13.564452 55.361328 -10.253906 11.787109 -9.074261 -10.615235 -9.121095 -15.595704 0.000000 0.000000 0.000000 67.070313 -3.076172 54.599079 21.835938 -12.929688 6.513672 10.087891 5.830078 -19.248045 -6.296630 0.673438 2.559033 14.216734 -3.183708 -0.900366 -4.533509 -1.301936 -8.544306 -13.865907 -23.950266 -13.285154 22.714777 1.894519 -2.802754 -1.759702 -3.538126 6.930154 
-2.731954 47.430702 0.660595 -2.470703 5.449258 5.977445 7.724609 -1.582031 3.515625 0.000000 0.000000 0.000000 -9.501953 2.988281 -0.175781 0.000000 0.000000 0.000000 0.000000 0.000000 0.000000 -61.054684 14.892579 62.541576 -15.410156 16.025391 -7.275391 -11.386719 -10.029298 -16.906000 0.000000 0.000000 0.000000 66.718750 -13.437500 50.859379 24.873045 -21.025389 7.783205 8.417969 9.531251 -27.264009 -5.445226 5.415381 4.357840 18.676447 0.106715 -3.321011 -6.958885 -8.070860 -13.185281 -7.723679 -16.772757 -12.056769 22.004795 -0.019752 -0.930737 -4.652527 -6.560522 7.330134 
-3.280584 46.714123 0.593416 -2.470703 2.275407 12.480768 10.195313 1.054688 3.330068 0.000000 0.000000 0.000000 -14.599607 3.505859 -6.337293 0.000000 0.000000 0.000000 0.000000 0.000000 0.000000 -57.099609 17.314453 63.320313 -19.365234 19.003904 -4.417243 -12.197266 -11.191406 -16.134708 0.000000 0.000000 0.000000 66.650391 -24.150391 45.425694 21.386719 -23.896486 1.732472 3.427734 11.533202 -38.789063 -11.659307 8.837174 3.487853 30.518572 3.219501 -5.807971 -12.394962 -11.496456 -18.075657 -8.962796 -13.500422 -13.219942 29.900776 -0.546780 -0.902104 -9.242564 -8.823248 7.253117 
